HIERARCHY
ROOT Pelvis
{
	OFFSET 0.000000 0.000000 0.000000
	CHANNELS 6 Xposition Yposition Zposition Zrotation Yrotation Xrotation 
	JOINT Left_hip
	{
		OFFSET 0.070241 -0.085575 -0.010474
		CHANNELS 3 Zrotation Yrotation Xrotation
		JOINT Left_knee
		{
			OFFSET 0.032125 -0.356873 -0.000555
			CHANNELS 3 Zrotation Yrotation Xrotation
			JOINT Left_ankle
			{
				OFFSET -0.010961 -0.370212 -0.042278
				CHANNELS 3 Zrotation Yrotation Xrotation
				JOINT Left_foot
				{
					OFFSET 0.023322 -0.052281 0.110104
					CHANNELS 3 Zrotation Yrotation Xrotation
					End Site
					{
						OFFSET 0.000000 0.000000 0.000000
					}
				}
			}
		}
	}
	JOINT Right_hip
	{
		OFFSET -0.068518 -0.084320 -0.007402
		CHANNELS 3 Zrotation Yrotation Xrotation
		JOINT Right_knee
		{
			OFFSET -0.037345 -0.364815 -0.003619
			CHANNELS 3 Zrotation Yrotation Xrotation
			JOINT Right_ankle
			{
				OFFSET 0.013394 -0.370006 -0.039954
				CHANNELS 3 Zrotation Yrotation Xrotation
				JOINT Right_foot
				{
					OFFSET -0.019600 -0.045455 0.113223
					CHANNELS 3 Zrotation Yrotation Xrotation
					End Site
					{
						OFFSET 0.000000 0.000000 0.000000
					}
				}
			}
		}
	}
	JOINT Spine1
	{
		OFFSET -0.002404 0.098129 -0.018169
		CHANNELS 3 Zrotation Yrotation Xrotation
		JOINT Spine2
		{
			OFFSET 0.003989 0.127209 -0.001742
			CHANNELS 3 Zrotation Yrotation Xrotation
			JOINT Spine3
			{
				OFFSET 0.001758 0.046641 0.023475
				CHANNELS 3 Zrotation Yrotation Xrotation
				JOINT Neck
				{
					OFFSET -0.003759 0.194901 -0.039982
					CHANNELS 3 Zrotation Yrotation Xrotation
					JOINT Head
					{
						OFFSET 0.003999 0.063756 0.047665
						CHANNELS 3 Zrotation Yrotation Xrotation
						End Site
						{
							OFFSET 0.000000 0.000000 0.000000
						}
					}
				}
				JOINT Left_collar
				{
					OFFSET 0.071816 0.109048 -0.028973
					CHANNELS 3 Zrotation Yrotation Xrotation
					JOINT Left_shoulder
					{
						OFFSET 0.084027 0.032269 -0.006525
						CHANNELS 3 Zrotation Yrotation Xrotation
						JOINT Left_elbow
						{
							OFFSET 0.243854 -0.013992 -0.025905
							CHANNELS 3 Zrotation Yrotation Xrotation
							JOINT Left_wrist
							{
								OFFSET 0.232156 0.008196 -0.000339
								CHANNELS 3 Zrotation Yrotation Xrotation
								JOINT Left_palm
								{
									OFFSET 0.075377 -0.009461 -0.012494
									CHANNELS 3 Zrotation Yrotation Xrotation
									End Site
									{
										OFFSET 0.000000 0.000000 0.000000
									}
								}
							}
						}
					}
				}
				JOINT Right_collar
				{
					OFFSET -0.073768 0.107001 -0.033755
					CHANNELS 3 Zrotation Yrotation Xrotation
					JOINT Right_shoulder
					{
						OFFSET -0.086837 0.032868 -0.009431
						CHANNELS 3 Zrotation Yrotation Xrotation
						JOINT Right_elbow
						{
							OFFSET -0.236446 -0.012544 -0.018747
							CHANNELS 3 Zrotation Yrotation Xrotation
							JOINT Right_wrist
							{
								OFFSET -0.236110 0.006124 -0.004327
								CHANNELS 3 Zrotation Yrotation Xrotation
								JOINT Right_palm
								{
									OFFSET -0.074800 -0.006875 -0.009610
									CHANNELS 3 Zrotation Yrotation Xrotation
									End Site
									{
										OFFSET 0.000000 0.000000 0.000000
									}
								}
							}
						}
					}
				}
			}
		}
	}
}
MOTION
Frames: 8
Frame Time: 0.100000
0.000000 0.000000 0.000000 177.221110 20.195694 -9.264496 1.106340 7.337770 2.044330 0.513932 -4.775006 -3.599424 -5.071698 25.435723 -3.435166 10.151075 -5.214221 0.800999 0.236634 -7.255362 2.114746 -0.422050 2.658964 -3.199805 -2.694158 -23.733215 -1.804544 8.581068 5.863594 7.047067 0.524330 2.242139 -2.012397 0.307233 -2.176884 -6.615047 -0.647492 1.738025 -0.728759 -2.219914 -5.030445 7.873532 2.357301 -1.872822 1.723723 -4.679424 7.014342 -10.853043 7.975734 -13.623097 -17.431802 1.554669 14.282678 -13.816521 -2.521569 -4.050630 31.712420 -0.296644 -6.951811 -0.309028 5.854347 -3.146003 -8.299206 -10.102916 7.383063 -21.159523 -8.577655 -11.225319 -6.262185 -1.710354 1.442346 36.872150 6.320825 8.334866 -3.609681 
0.000092 0.000164 -0.000765 177.198105 20.048713 -9.495132 1.159400 7.409801 2.269935 0.526522 -4.814355 -3.657796 -5.130806 25.544765 -3.466704 10.290617 -5.249299 0.798033 0.245647 -7.262871 2.341066 -0.434312 2.741944 -3.331534 -2.632466 -23.687699 -1.696089 8.461292 5.879153 6.983873 0.503483 2.289049 -1.925532 0.306598 -2.190519 -6.256323 -0.624802 1.763379 -0.668541 -2.283201 -5.067810 8.035812 2.432170 -1.852189 1.640929 -4.865071 6.790532 -10.808339 8.107588 -13.588797 -17.553319 1.703398 14.189695 -13.615162 -2.391370 -3.936063 32.343364 -0.374855 -7.041646 -0.491007 6.006955 -2.917765 -8.240437 -10.278224 7.323444 -21.359125 -8.538770 -11.193969 -6.269126 -1.518812 1.364663 37.291831 6.370308 8.370478 -3.699658 
0.000421 0.000342 -0.001856 177.193578 19.828850 -9.479277 1.173416 7.420416 2.238173 0.535580 -4.767189 -3.729396 -5.145516 25.644489 -3.433031 10.394097 -5.354422 0.771947 0.280841 -7.234188 2.258789 -0.436819 2.831990 -3.412103 -2.522886 -23.669917 -1.622668 8.231172 5.999284 6.917485 0.439431 2.329547 -1.909172 0.298029 -2.163503 -6.088609 -0.642565 1.783811 -0.730058 -2.302197 -5.107948 8.136351 2.515534 -1.885370 1.797657 -4.906524 6.921559 -10.741959 8.118659 -13.630320 -17.401172 1.739656 14.225093 -12.958778 -2.728275 -3.737840 32.940911 -0.384821 -7.111248 -0.751538 6.146038 -2.950446 -8.215734 -10.103007 7.407030 -21.298780 -8.309750 -11.714466 -6.490227 -0.860151 1.177777 37.003730 6.339710 8.416681 -3.719273 
0.000711 0.000546 -0.003235 177.180939 19.693405 -9.504656 1.184637 7.460517 2.234396 0.535305 -4.688780 -3.814260 -5.088275 25.712452 -3.336029 10.393683 -5.365023 0.760601 0.283187 -7.218954 2.099702 -0.385504 2.862481 -3.252843 -2.454348 -23.612874 -1.639175 8.110014 6.039551 6.908043 0.448201 2.308567 -1.826151 0.301176 -2.150485 -6.071295 -0.652282 1.791989 -0.679660 -2.393932 -5.049207 8.341975 2.425223 -1.812323 2.000402 -4.887702 7.090426 -10.765629 8.015697 -13.631465 -17.530728 1.882688 14.437347 -13.148921 -2.716905 -3.460244 33.065506 -0.365125 -7.128525 -0.793543 6.227225 -3.031877 -8.221568 -9.941376 7.601108 -21.334853 -8.323061 -12.035859 -6.598973 -0.709259 0.942209 37.075974 6.309098 8.431164 -3.757362 
0.000897 0.000771 -0.004510 177.194536 19.674287 -9.618650 1.164581 7.435500 2.222986 0.518304 -4.700723 -3.745520 -5.060057 25.693861 -3.330681 10.408282 -5.351906 0.754573 0.261157 -7.205826 2.049234 -0.387771 2.832205 -3.122611 -2.510337 -23.599279 -1.625403 8.216307 6.058169 6.985086 0.421718 2.306987 -1.736160 0.332106 -2.155681 -5.893196 -0.684239 1.793145 -0.629190 -2.407405 -4.973463 8.684361 2.339981 -1.709164 2.375515 -4.998808 7.235126 -10.716124 7.921191 -13.693676 -17.472708 1.725625 14.154785 -13.336103 -2.497064 -3.493878 32.744249 -0.436117 -7.099107 -0.730457 6.437549 -3.113076 -8.193198 -9.891737 7.738130 -21.285013 -8.282923 -12.064492 -6.795169 -0.913073 0.959142 36.986499 6.331574 8.402076 -3.702928 
0.001273 0.001193 -0.006361 177.195220 19.679236 -9.752985 1.176338 7.450704 2.223768 0.473090 -4.548229 -3.706436 -5.020932 25.549717 -3.223716 10.472673 -5.181810 0.684923 0.226924 -7.177940 2.005492 -0.360273 2.673053 -2.994187 -2.534764 -23.436000 -1.609048 8.185518 5.970873 7.031959 0.414499 2.295681 -1.670275 0.376332 -2.161510 -5.615461 -0.735762 1.784193 -0.610249 -2.340486 -5.077932 9.036640 2.256074 -1.723914 2.718011 -5.428226 7.357333 -10.654457 6.967848 -14.106539 -17.027213 2.293155 13.449788 -13.432491 -2.054684 -3.450706 32.236739 -0.723337 -7.126327 -0.764005 6.884743 -3.159590 -8.180573 -9.051244 8.253930 -20.791954 -8.616175 -11.492246 -6.816611 -1.236548 0.947476 36.597918 6.513191 8.456968 -3.664543 
0.002269 0.002200 -0.008817 177.255988 19.495664 -9.945765 1.202687 7.355160 2.191867 0.395676 -3.972208 -3.523784 -4.510290 24.905016 -3.027960 9.956278 -4.343178 0.602475 0.208442 -6.932451 1.906839 -0.353608 2.197177 -2.766522 -2.974571 -22.768101 -1.536231 8.947761 5.466168 7.211384 0.302325 2.260955 -1.515325 0.479778 -2.055128 -4.907637 -0.918922 1.706673 -0.846552 -1.497862 -4.975746 8.807447 1.852477 -2.155297 3.139635 -6.801153 7.546124 -10.380644 3.362819 -14.925631 -14.866076 4.025440 11.412650 -14.021445 0.376222 -3.732076 29.927950 -1.208231 -6.951518 -0.410266 8.498807 -3.070583 -7.591380 -4.775301 9.453841 -17.426651 -9.271213 -8.565819 -4.642784 -3.456855 1.539090 35.391053 6.852020 8.512208 -3.195746 
0.004167 0.005457 -0.013182 177.402112 19.445529 -10.345566 1.185176 7.192068 1.990910 0.258965 -2.648919 -2.826440 -3.786438 23.213922 -2.948959 8.653647 -2.782746 0.545660 -0.009215 -6.661186 1.751858 -0.195208 0.871221 -2.172663 -4.759844 -21.050494 -1.508089 12.410570 4.493111 8.458999 0.370333 2.523895 -1.434909 0.445357 -1.548647 -1.413253 -1.377884 1.690053 -2.275281 0.017758 -4.926771 6.564267 0.362419 -3.400387 3.148921 -12.362152 6.057920 -8.504472 -5.049653 -14.591607 -8.084999 7.077532 3.065447 -15.144434 8.403307 -6.899544 23.690141 -3.019412 -6.952187 -0.129685 13.387007 -1.787537 -4.440043 3.204188 7.253633 -9.897115 -9.363281 -0.696915 -1.249923 -9.969536 5.365826 31.658855 8.337722 8.837051 -2.304204 
